<svg width="218" height="222" viewBox="0 0 218 222" fill="none" xmlns="http://www.w3.org/2000/svg">
<path d="M44.5736 219L40.3975 203.727H42.2767L45.4685 216.166H45.6176L48.869 203.727H50.9571L54.2085 216.166H54.3577L57.5494 203.727H59.4287L55.2526 219H53.3435L49.9727 206.83H49.8534L46.4827 219H44.5736ZM62.213 219V203.727H71.4304V205.368H64.0625V210.528H70.9531V212.169H64.0625V217.359H71.5497V219H62.213ZM75.2438 219V203.727H80.5833C81.6472 203.727 82.5247 203.911 83.2158 204.279C83.9068 204.642 84.4214 205.132 84.7594 205.748C85.0975 206.36 85.2665 207.038 85.2665 207.784C85.2665 208.44 85.1497 208.982 84.916 209.41C84.6874 209.837 84.3841 210.175 84.0062 210.424C83.6334 210.673 83.2282 210.857 82.7907 210.976V211.125C83.258 211.155 83.7278 211.319 84.2001 211.617C84.6724 211.915 85.0677 212.343 85.3859 212.9C85.704 213.457 85.8631 214.138 85.8631 214.943C85.8631 215.709 85.6891 216.397 85.3411 217.009C84.9931 217.62 84.4437 218.105 83.693 218.463C82.9423 218.821 81.9654 219 80.7623 219H75.2438ZM77.0933 217.359H80.7623C81.9704 217.359 82.828 217.126 83.3351 216.658C83.8472 216.186 84.1032 215.614 84.1032 214.943C84.1032 214.426 83.9714 213.949 83.708 213.511C83.4445 213.069 83.0691 212.716 82.5819 212.452C82.0947 212.184 81.518 212.05 80.8518 212.05H77.0933V217.359ZM77.0933 210.439H80.5236C81.0805 210.439 81.5826 210.33 82.03 210.111C82.4825 209.892 82.8404 209.584 83.1039 209.186C83.3724 208.788 83.5066 208.321 83.5066 207.784C83.5066 207.113 83.2729 206.544 82.8056 206.076C82.3383 205.604 81.5975 205.368 80.5833 205.368H77.0933V210.439ZM100.481 219H95.7683V203.727H100.69C102.172 203.727 103.439 204.033 104.493 204.645C105.547 205.251 106.355 206.124 106.917 207.262C107.479 208.396 107.76 209.753 107.76 211.334C107.76 212.925 107.476 214.294 106.91 215.443C106.343 216.586 105.518 217.466 104.434 218.083C103.35 218.694 102.032 219 100.481 219ZM97.6177 217.359H100.362C101.625 217.359 102.671 217.116 103.502 216.629C104.332 216.141 104.951 215.448 105.358 214.548C105.766 213.648 105.97 212.577 105.97 211.334C105.97 210.101 105.769 209.039 105.366 208.15C104.963 207.255 104.362 206.569 103.561 206.091C102.761 205.609 101.764 205.368 100.571 205.368H97.6177V217.359ZM111.342 219V203.727H120.559V205.368H113.191V210.528H120.082V212.169H113.191V217.359H120.679V219H111.342ZM132.725 207.545C132.636 206.79 132.273 206.203 131.636 205.786C131 205.368 130.219 205.159 129.295 205.159C128.619 205.159 128.027 205.268 127.52 205.487C127.018 205.706 126.625 206.007 126.342 206.39C126.063 206.772 125.924 207.207 125.924 207.695C125.924 208.102 126.021 208.453 126.215 208.746C126.414 209.034 126.667 209.276 126.975 209.469C127.284 209.658 127.607 209.815 127.945 209.939C128.283 210.059 128.594 210.156 128.877 210.23L130.428 210.648C130.826 210.752 131.268 210.896 131.756 211.08C132.248 211.264 132.718 211.515 133.165 211.833C133.617 212.147 133.99 212.549 134.284 213.042C134.577 213.534 134.724 214.138 134.724 214.854C134.724 215.679 134.507 216.425 134.075 217.091C133.647 217.757 133.021 218.287 132.196 218.679C131.375 219.072 130.378 219.268 129.205 219.268C128.111 219.268 127.164 219.092 126.364 218.739C125.568 218.386 124.942 217.894 124.485 217.262C124.032 216.631 123.776 215.898 123.717 215.062H125.626C125.675 215.639 125.869 216.116 126.207 216.494C126.55 216.867 126.983 217.146 127.505 217.33C128.032 217.509 128.599 217.598 129.205 217.598C129.911 217.598 130.545 217.484 131.107 217.255C131.669 217.021 132.114 216.698 132.442 216.286C132.77 215.868 132.934 215.381 132.934 214.824C132.934 214.317 132.792 213.904 132.509 213.586C132.225 213.268 131.853 213.009 131.39 212.81C130.928 212.612 130.428 212.437 129.891 212.288L128.012 211.751C126.819 211.408 125.874 210.919 125.178 210.282C124.482 209.646 124.134 208.813 124.134 207.784C124.134 206.929 124.365 206.183 124.828 205.547C125.295 204.906 125.921 204.408 126.707 204.055C127.497 203.697 128.38 203.518 129.354 203.518C130.339 203.518 131.214 203.695 131.979 204.048C132.745 204.396 133.351 204.873 133.799 205.48C134.251 206.086 134.49 206.775 134.515 207.545H132.725ZM140.094 203.727V219H138.244V203.727H140.094ZM154.722 208.5C154.558 207.998 154.342 207.548 154.074 207.15C153.81 206.748 153.494 206.404 153.126 206.121C152.764 205.838 152.351 205.621 151.889 205.472C151.426 205.323 150.919 205.249 150.367 205.249C149.462 205.249 148.64 205.482 147.899 205.95C147.158 206.417 146.569 207.105 146.131 208.015C145.694 208.925 145.475 210.041 145.475 211.364C145.475 212.686 145.696 213.802 146.139 214.712C146.581 215.622 147.18 216.31 147.936 216.778C148.692 217.245 149.542 217.479 150.487 217.479C151.362 217.479 152.132 217.292 152.798 216.919C153.47 216.542 153.992 216.01 154.364 215.324C154.742 214.632 154.931 213.82 154.931 212.885L155.498 213.004H150.904V211.364H156.721V213.004C156.721 214.262 156.452 215.356 155.916 216.286C155.384 217.215 154.648 217.936 153.708 218.448C152.773 218.955 151.7 219.209 150.487 219.209C149.134 219.209 147.946 218.891 146.922 218.254C145.903 217.618 145.107 216.713 144.536 215.54C143.969 214.366 143.685 212.974 143.685 211.364C143.685 210.156 143.847 209.069 144.17 208.105C144.498 207.135 144.961 206.31 145.557 205.629C146.154 204.948 146.86 204.426 147.675 204.063C148.49 203.7 149.388 203.518 150.367 203.518C151.173 203.518 151.923 203.64 152.619 203.884C153.32 204.123 153.944 204.463 154.491 204.906C155.043 205.343 155.503 205.868 155.871 206.479C156.239 207.086 156.492 207.759 156.631 208.5H154.722ZM172.479 203.727V219H170.689L162.367 207.009H162.218V219H160.368V203.727H162.158L170.511 215.749H170.66V203.727H172.479Z" fill="#3B4761"/>
<path d="M96.7386 91.1974C97.7827 91.2057 98.8267 91.4046 99.8707 91.794C100.915 92.1835 101.868 92.8298 102.729 93.733C103.591 94.6278 104.283 95.85 104.805 97.3995C105.327 98.949 105.588 100.892 105.588 103.229C105.588 105.491 105.373 107.5 104.942 109.257C104.519 111.005 103.906 112.48 103.102 113.681C102.307 114.883 101.337 115.794 100.194 116.416C99.0587 117.037 97.7744 117.348 96.3409 117.348C94.9157 117.348 93.6438 117.066 92.5252 116.503C91.4149 115.931 90.5034 115.14 89.7908 114.129C89.0865 113.11 88.6349 111.929 88.4361 110.587H91.4688C91.7422 111.755 92.2849 112.72 93.0969 113.483C93.9173 114.237 94.9986 114.614 96.3409 114.614C98.3047 114.614 99.8542 113.756 100.989 112.041C102.133 110.326 102.705 107.902 102.705 104.77H102.506C102.042 105.466 101.491 106.067 100.853 106.572C100.215 107.078 99.5062 107.467 98.7273 107.74C97.9484 108.014 97.1198 108.151 96.2415 108.151C94.7831 108.151 93.445 107.79 92.2269 107.069C91.0172 106.34 90.0477 105.342 89.3185 104.074C88.5977 102.798 88.2372 101.339 88.2372 99.6989C88.2372 98.1411 88.5852 96.7159 89.2812 95.4233C89.9856 94.1224 90.9716 93.0866 92.2393 92.3161C93.5154 91.5455 95.0152 91.1726 96.7386 91.1974ZM96.7386 93.9318C95.6946 93.9318 94.7541 94.1928 93.9173 94.7148C93.0887 95.2286 92.4299 95.9246 91.9411 96.8029C91.4605 97.6729 91.2202 98.6383 91.2202 99.6989C91.2202 100.759 91.4522 101.725 91.9162 102.595C92.3885 103.457 93.0307 104.144 93.8427 104.658C94.663 105.163 95.5952 105.416 96.6392 105.416C97.4264 105.416 98.1597 105.263 98.8391 104.956C99.5186 104.641 100.111 104.215 100.616 103.676C101.13 103.129 101.532 102.512 101.822 101.824C102.112 101.128 102.257 100.403 102.257 99.6491C102.257 98.6548 102.017 97.7227 101.536 96.8526C101.064 95.9826 100.409 95.2783 99.5724 94.7397C98.7438 94.2011 97.7992 93.9318 96.7386 93.9318ZM119.658 117.348C117.786 117.348 116.191 116.838 114.873 115.819C113.556 114.792 112.549 113.304 111.853 111.357C111.157 109.402 110.809 107.04 110.809 104.273C110.809 101.522 111.157 99.1727 111.853 97.2255C112.557 95.27 113.568 93.7785 114.886 92.7511C116.211 91.7153 117.802 91.1974 119.658 91.1974C121.514 91.1974 123.101 91.7153 124.419 92.7511C125.744 93.7785 126.755 95.27 127.451 97.2255C128.156 99.1727 128.508 101.522 128.508 104.273C128.508 107.04 128.16 109.402 127.464 111.357C126.768 113.304 125.761 114.792 124.443 115.819C123.126 116.838 121.531 117.348 119.658 117.348ZM119.658 114.614C121.514 114.614 122.956 113.719 123.984 111.929C125.011 110.139 125.525 107.587 125.525 104.273C125.525 102.069 125.289 100.192 124.816 98.6424C124.352 97.0929 123.681 95.9122 122.803 95.1001C121.933 94.2881 120.885 93.8821 119.658 93.8821C117.819 93.8821 116.381 94.7894 115.345 96.604C114.31 98.4104 113.792 100.967 113.792 104.273C113.792 106.477 114.024 108.349 114.488 109.891C114.952 111.432 115.619 112.604 116.489 113.408C117.367 114.212 118.424 114.614 119.658 114.614ZM142.626 113.591V112.632C142.626 111.969 142.763 111.363 143.035 110.812C143.313 110.256 143.715 109.812 144.242 109.48C144.775 109.143 145.42 108.974 146.178 108.974C146.947 108.974 147.592 109.143 148.113 109.48C148.634 109.812 149.027 110.256 149.294 110.812C149.56 111.363 149.693 111.969 149.693 112.632V113.591C149.693 114.254 149.557 114.863 149.285 115.42C149.018 115.97 148.622 116.414 148.095 116.751C147.574 117.083 146.935 117.249 146.178 117.249C145.408 117.249 144.76 117.083 144.233 116.751C143.707 116.414 143.307 115.97 143.035 115.42C142.763 114.863 142.626 114.254 142.626 113.591ZM144.437 112.632V113.591C144.437 114.141 144.568 114.636 144.828 115.074C145.089 115.506 145.538 115.722 146.178 115.722C146.799 115.722 147.237 115.506 147.491 115.074C147.752 114.636 147.882 114.141 147.882 113.591V112.632C147.882 112.082 147.758 111.59 147.509 111.158C147.261 110.72 146.817 110.501 146.178 110.501C145.556 110.501 145.109 110.72 144.837 111.158C144.571 111.59 144.437 112.082 144.437 112.632ZM133.571 103.186V102.227C133.571 101.564 133.707 100.958 133.979 100.407C134.258 99.851 134.66 99.4071 135.187 99.0756C135.719 98.7383 136.365 98.5696 137.122 98.5696C137.892 98.5696 138.537 98.7383 139.057 99.0756C139.578 99.4071 139.972 99.851 140.238 100.407C140.505 100.958 140.638 101.564 140.638 102.227V103.186C140.638 103.849 140.502 104.459 140.229 105.015C139.963 105.565 139.566 106.009 139.04 106.347C138.519 106.678 137.88 106.844 137.122 106.844C136.353 106.844 135.705 106.678 135.178 106.347C134.651 106.009 134.252 105.565 133.979 105.015C133.707 104.459 133.571 103.849 133.571 103.186ZM135.382 102.227V103.186C135.382 103.737 135.512 104.231 135.773 104.669C136.033 105.101 136.483 105.317 137.122 105.317C137.744 105.317 138.182 105.101 138.436 104.669C138.696 104.231 138.827 103.737 138.827 103.186V102.227C138.827 101.677 138.702 101.186 138.454 100.754C138.205 100.316 137.761 100.097 137.122 100.097C136.501 100.097 136.054 100.316 135.782 100.754C135.515 101.186 135.382 101.677 135.382 102.227ZM134.246 117L146.746 98.8182H148.77L136.27 117H134.246Z" fill="#3B4761"/>
<path fill-rule="evenodd" clip-rule="evenodd" d="M190 91.9993C190 47.8165 154.183 11.9993 110 11.9993C65.8172 11.9993 29.9999 47.8165 29.9999 91.9993C29.9999 136.182 65.8172 171.999 110 171.999C154.183 171.999 190 136.182 190 91.9993ZM176.997 91.9993C176.997 54.9979 147.002 25.002 110 25.002C72.9983 25.002 43.0025 54.9979 43.0025 91.9993C43.0025 129.001 72.9983 158.997 110 158.997C147.002 158.997 176.997 129.001 176.997 91.9993Z" fill="#DFE8ED"/>
<path fill-rule="evenodd" clip-rule="evenodd" d="M122.445 6.93579V39.2301C122.445 39.2301 225.774 73.9256 142 140.5C106.573 168.654 78.6113 168.198 55.8088 127.685C29.0898 80.2133 81.1035 51.3729 81.1035 51.3729L57.9379 22.9534C57.9379 22.9534 -16.1129 75.759 29.5 147.958C59.6398 195.666 131.056 193.249 164.598 183C211.434 140.603 211.434 92.5 211.434 52.8731C182.055 17.6432 122.445 6.93579 122.445 6.93579Z" fill="#30BAE7"/>
</svg>
