<?xml version="1.0"?>
<svg width="218" height="222" xmlns="http://www.w3.org/2000/svg" xmlns:svg="http://www.w3.org/2000/svg">

 <g class="layer">
  <title>Layer 1</title>
  <path d="m44.86,216.71l0,-14.54l1.76,0l0,6.47l7.76,0l0,-6.47l1.76,0l0,14.54l-1.76,0l0,-6.51l-7.76,0l0,6.51l-1.76,0zm14.49,-12.98l0,-1.56l10.91,0l0,1.56l-4.57,0l0,12.98l-1.77,0l0,-12.98l-4.57,0zm14.11,-1.56l2.1,0l4.94,12.07l0.17,0l4.95,-12.07l2.1,0l0,14.54l-1.65,0l0,-11.05l-0.14,0l-4.55,11.05l-1.59,0l-4.54,-11.05l-0.14,0l0,11.05l-1.65,0l0,-14.54zm18.27,14.54l0,-14.54l1.76,0l0,12.98l6.76,0l0,1.56l-8.52,0zm22.75,-15.23l-4.69,17.42l-1.53,0l4.69,-17.42l1.53,0zm20.5,5.23l-1.76,0c-0.1,-0.51 -0.28,-0.95 -0.54,-1.34c-0.26,-0.38 -0.57,-0.7 -0.94,-0.96c-0.37,-0.27 -0.77,-0.46 -1.22,-0.6c-0.44,-0.13 -0.9,-0.2 -1.39,-0.2c-0.88,0 -1.68,0.23 -2.39,0.67c-0.71,0.45 -1.28,1.1 -1.7,1.97c-0.41,0.87 -0.62,1.93 -0.62,3.19c0,1.26 0.21,2.32 0.62,3.19c0.42,0.86 0.99,1.52 1.7,1.96c0.71,0.45 1.51,0.67 2.39,0.67c0.49,0 0.95,-0.06 1.39,-0.2c0.45,-0.13 0.85,-0.33 1.22,-0.59c0.37,-0.26 0.68,-0.59 0.94,-0.97c0.26,-0.39 0.44,-0.83 0.54,-1.33l1.76,0c-0.13,0.74 -0.37,1.4 -0.72,1.99c-0.35,0.59 -0.79,1.09 -1.31,1.5c-0.52,0.41 -1.1,0.72 -1.75,0.93c-0.65,0.21 -1.33,0.32 -2.07,0.32c-1.24,0 -2.34,-0.3 -3.31,-0.91c-0.96,-0.61 -1.72,-1.47 -2.28,-2.58c-0.55,-1.12 -0.83,-2.45 -0.83,-3.98c0,-1.54 0.28,-2.86 0.83,-3.98c0.56,-1.12 1.32,-1.98 2.28,-2.59c0.97,-0.6 2.07,-0.9 3.31,-0.9c0.74,0 1.42,0.1 2.07,0.31c0.65,0.22 1.23,0.53 1.75,0.94c0.52,0.41 0.96,0.91 1.31,1.49c0.35,0.59 0.59,1.25 0.72,2zm11.28,-0.91c-0.08,-0.72 -0.43,-1.28 -1.03,-1.68c-0.61,-0.39 -1.35,-0.59 -2.23,-0.59c-0.65,0 -1.21,0.1 -1.69,0.31c-0.48,0.21 -0.85,0.5 -1.12,0.86c-0.27,0.36 -0.4,0.78 -0.4,1.24c0,0.39 0.09,0.73 0.28,1c0.18,0.28 0.43,0.51 0.72,0.69c0.29,0.18 0.6,0.33 0.92,0.45c0.33,0.11 0.62,0.21 0.89,0.28l1.48,0.39c0.38,0.11 0.8,0.24 1.26,0.42c0.47,0.17 0.92,0.41 1.34,0.72c0.43,0.29 0.79,0.68 1.07,1.14c0.28,0.47 0.42,1.05 0.42,1.73c0,0.79 -0.21,1.5 -0.62,2.13c-0.41,0.64 -1,1.14 -1.79,1.51c-0.78,0.38 -1.73,0.57 -2.85,0.57c-1.04,0 -1.94,-0.17 -2.7,-0.51c-0.76,-0.34 -1.36,-0.8 -1.79,-1.41c-0.43,-0.6 -0.68,-1.3 -0.73,-2.09l1.81,0c0.05,0.55 0.24,1 0.56,1.36c0.32,0.36 0.74,0.62 1.23,0.8c0.51,0.17 1.05,0.25 1.62,0.25c0.68,0 1.28,-0.1 1.81,-0.32c0.54,-0.22 0.96,-0.53 1.28,-0.93c0.31,-0.39 0.46,-0.86 0.46,-1.39c0,-0.48 -0.13,-0.87 -0.4,-1.18c-0.27,-0.3 -0.63,-0.55 -1.07,-0.74c-0.44,-0.18 -0.91,-0.35 -1.42,-0.49l-1.79,-0.51c-1.14,-0.33 -2.04,-0.8 -2.7,-1.4c-0.67,-0.61 -1,-1.4 -1,-2.38c0,-0.82 0.22,-1.53 0.66,-2.13c0.45,-0.61 1.05,-1.09 1.79,-1.42c0.76,-0.34 1.6,-0.51 2.53,-0.51c0.93,0 1.77,0.16 2.5,0.5c0.72,0.33 1.3,0.79 1.73,1.36c0.43,0.58 0.66,1.24 0.68,1.97l-1.71,0zm13.24,0c-0.09,-0.72 -0.43,-1.28 -1.04,-1.68c-0.6,-0.39 -1.35,-0.59 -2.23,-0.59c-0.64,0 -1.2,0.1 -1.69,0.31c-0.48,0.21 -0.85,0.5 -1.12,0.86c-0.27,0.36 -0.4,0.78 -0.4,1.24c0,0.39 0.09,0.73 0.28,1c0.19,0.28 0.43,0.51 0.72,0.69c0.3,0.18 0.61,0.33 0.93,0.45c0.32,0.11 0.62,0.21 0.88,0.28l1.48,0.39c0.38,0.11 0.8,0.24 1.27,0.42c0.46,0.17 0.91,0.41 1.34,0.72c0.43,0.29 0.78,0.68 1.06,1.14c0.28,0.47 0.42,1.05 0.42,1.73c0,0.79 -0.2,1.5 -0.61,2.13c-0.41,0.64 -1.01,1.14 -1.79,1.51c-0.79,0.38 -1.74,0.57 -2.85,0.57c-1.05,0 -1.95,-0.17 -2.71,-0.51c-0.76,-0.34 -1.35,-0.8 -1.79,-1.41c-0.43,-0.6 -0.67,-1.3 -0.73,-2.09l1.82,0c0.05,0.55 0.23,1 0.55,1.36c0.33,0.36 0.74,0.62 1.24,0.8c0.5,0.17 1.04,0.25 1.62,0.25c0.67,0 1.27,-0.1 1.81,-0.32c0.53,-0.22 0.96,-0.53 1.27,-0.93c0.31,-0.39 0.47,-0.86 0.47,-1.39c0,-0.48 -0.14,-0.87 -0.41,-1.18c-0.27,-0.3 -0.62,-0.55 -1.06,-0.74c-0.44,-0.18 -0.92,-0.35 -1.43,-0.49l-1.79,-0.51c-1.14,-0.33 -2.03,-0.8 -2.7,-1.4c-0.66,-0.61 -0.99,-1.4 -0.99,-2.38c0,-0.82 0.22,-1.53 0.66,-2.13c0.44,-0.61 1.04,-1.09 1.79,-1.42c0.75,-0.34 1.59,-0.51 2.52,-0.51c0.94,0 1.77,0.16 2.5,0.5c0.73,0.33 1.31,0.79 1.73,1.36c0.43,0.58 0.66,1.24 0.68,1.97l-1.7,0z" fill="#3B4761" id="svg_8"/>
  <path clip-rule="evenodd" d="m186.1,90.71c0,-44.18 -35.82,-80 -80,-80c-44.18,0 -80,35.82 -80,80c0,44.18 35.82,80 80,80c44.18,0 80,-35.82 80,-80zm-13,0c0,-37 -30,-67 -67,-67c-37,0 -67,30 -67,67c0,37 30,67 67,67c37,0 67,-30 67,-67z" fill="#DFE8ED" fill-rule="evenodd" id="svg_7"/>
  <path clip-rule="evenodd" d="m110.46,-15.9l0,36.07c2,13 107.36,58.73 42.44,120.06c-64.92,61.33 -110.37,-51.19 -110.37,-51.19l-34.66,0c0,0 14.03,131.31 140.98,91.73c69.6,-21.7 69.4,-106.01 42.65,-145.36c-26.76,-39.35 -90.04,-25.31 -81.04,-51.31z" fill="#D74680" fill-rule="evenodd" id="svg_6"/>
  <path d="m84.3,104.1l11.39,-22.53l0,-0.19l-13.13,0l0,-2.74l16.31,0l0,2.88l-11.34,22.58l-3.23,0zm27.69,0.34c-1.46,0 -2.77,-0.29 -3.94,-0.87c-1.17,-0.58 -2.1,-1.37 -2.81,-2.38c-0.7,-1.01 -1.09,-2.17 -1.15,-3.46l2.98,0c0.12,1.15 0.64,2.11 1.57,2.86c0.93,0.75 2.05,1.12 3.35,1.12c1.05,0 1.97,-0.25 2.79,-0.73c0.82,-0.49 1.46,-1.16 1.92,-2.02c0.48,-0.86 0.71,-1.83 0.71,-2.92c0,-1.11 -0.24,-2.1 -0.73,-2.97c-0.48,-0.88 -1.14,-1.57 -1.99,-2.07c-0.84,-0.51 -1.81,-0.77 -2.9,-0.77c-0.77,-0.01 -1.58,0.11 -2.39,0.36c-0.83,0.24 -1.5,0.55 -2.03,0.93l-2.88,-0.35l1.54,-12.53l13.22,0l0,2.74l-10.64,0l-0.89,7.5l0.15,0c0.52,-0.41 1.17,-0.75 1.96,-1.03c0.79,-0.27 1.61,-0.41 2.46,-0.41c1.56,0 2.95,0.37 4.17,1.12c1.22,0.74 2.18,1.75 2.88,3.03c0.7,1.29 1.06,2.75 1.06,4.4c0,1.63 -0.37,3.08 -1.1,4.35c-0.72,1.27 -1.71,2.27 -2.98,3.01c-1.27,0.73 -2.71,1.09 -4.33,1.09zm22.74,-3.75l0,-0.96c0,-0.66 0.13,-1.27 0.41,-1.82c0.27,-0.56 0.68,-1 1.2,-1.33c0.54,-0.34 1.18,-0.51 1.94,-0.51c0.77,0 1.41,0.17 1.93,0.51c0.52,0.33 0.92,0.77 1.18,1.33c0.27,0.55 0.4,1.16 0.4,1.82l0,0.96c0,0.66 -0.13,1.27 -0.4,1.83c-0.27,0.55 -0.67,0.99 -1.19,1.33c-0.52,0.33 -1.16,0.49 -1.92,0.49c-0.77,0 -1.42,-0.16 -1.94,-0.49c-0.53,-0.34 -0.93,-0.78 -1.2,-1.33c-0.28,-0.56 -0.41,-1.17 -0.41,-1.83zm1.81,-0.96l0,0.96c0,0.55 0.13,1.04 0.39,1.48c0.26,0.43 0.71,0.65 1.35,0.65c0.62,0 1.06,-0.22 1.31,-0.65c0.26,-0.44 0.39,-0.93 0.39,-1.48l0,-0.96c0,-0.55 -0.12,-1.04 -0.37,-1.48c-0.25,-0.43 -0.69,-0.65 -1.33,-0.65c-0.62,0 -1.07,0.22 -1.34,0.65c-0.27,0.44 -0.4,0.93 -0.4,1.48zm-10.87,-9.45l0,-0.96c0,-0.66 0.14,-1.27 0.41,-1.82c0.28,-0.55 0.68,-1 1.21,-1.33c0.53,-0.34 1.18,-0.51 1.93,-0.51c0.77,0 1.42,0.17 1.94,0.51c0.52,0.33 0.91,0.78 1.18,1.33c0.27,0.55 0.4,1.16 0.4,1.82l0,0.96c0,0.66 -0.14,1.27 -0.41,1.83c-0.27,0.55 -0.66,0.99 -1.19,1.33c-0.52,0.33 -1.16,0.5 -1.92,0.5c-0.77,0 -1.41,-0.17 -1.94,-0.5c-0.53,-0.34 -0.93,-0.78 -1.2,-1.33c-0.27,-0.56 -0.41,-1.17 -0.41,-1.83zm1.81,-0.96l0,0.96c0,0.55 0.13,1.05 0.39,1.48c0.26,0.44 0.71,0.65 1.35,0.65c0.63,0 1.06,-0.21 1.32,-0.65c0.26,-0.43 0.39,-0.93 0.39,-1.48l0,-0.96c0,-0.55 -0.13,-1.04 -0.38,-1.47c-0.24,-0.44 -0.69,-0.66 -1.33,-0.66c-0.62,0 -1.06,0.22 -1.34,0.66c-0.26,0.43 -0.4,0.92 -0.4,1.47zm-1.13,14.78l12.5,-18.19l2.02,0l-12.5,18.19l-2.02,0z" fill="#3B4761" id="svg_5"/>
 </g>
</svg>