<?xml version="1.0"?>
<svg width="218" height="222" xmlns="http://www.w3.org/2000/svg" xmlns:svg="http://www.w3.org/2000/svg">

 <g class="layer">
  <title>Layer 1</title>
  <path d="m30.94,207.07c-0.15,-0.47 -0.36,-0.9 -0.61,-1.28c-0.25,-0.39 -0.55,-0.71 -0.91,-0.98c-0.34,-0.27 -0.73,-0.48 -1.17,-0.62c-0.44,-0.14 -0.93,-0.21 -1.45,-0.21c-0.86,0 -1.65,0.22 -2.35,0.67c-0.71,0.44 -1.27,1.1 -1.69,1.96c-0.41,0.87 -0.62,1.93 -0.62,3.19c0,1.26 0.21,2.32 0.63,3.19c0.42,0.87 0.99,1.52 1.71,1.97c0.72,0.44 1.53,0.66 2.43,0.66c0.83,0 1.57,-0.17 2.2,-0.53c0.64,-0.36 1.14,-0.86 1.49,-1.52c0.36,-0.65 0.54,-1.43 0.54,-2.32l0.54,0.11l-4.37,0l0,-1.56l5.54,0l0,1.56c0,1.2 -0.26,2.24 -0.77,3.13c-0.51,0.88 -1.21,1.57 -2.1,2.06c-0.89,0.48 -1.91,0.72 -3.07,0.72c-1.29,0 -2.42,-0.3 -3.39,-0.91c-0.97,-0.6 -1.73,-1.46 -2.28,-2.58c-0.54,-1.12 -0.81,-2.44 -0.81,-3.98c0,-1.15 0.16,-2.18 0.46,-3.1c0.32,-0.93 0.76,-1.71 1.33,-2.36c0.56,-0.65 1.24,-1.15 2.01,-1.49c0.78,-0.35 1.63,-0.52 2.57,-0.52c0.76,0 1.48,0.12 2.14,0.35c0.67,0.22 1.26,0.55 1.78,0.97c0.53,0.42 0.97,0.92 1.32,1.5c0.35,0.58 0.59,1.22 0.72,1.92l-1.82,0zm5.4,10l0,-14.54l4.92,0c1.14,0 2.07,0.19 2.8,0.58c0.73,0.38 1.27,0.91 1.62,1.59c0.35,0.67 0.52,1.43 0.52,2.29c0,0.86 -0.17,1.62 -0.52,2.28c-0.35,0.66 -0.89,1.18 -1.62,1.56c-0.72,0.38 -1.65,0.56 -2.77,0.56l-3.98,0l0,-1.59l3.92,0c0.78,0 1.4,-0.11 1.88,-0.34c0.47,-0.23 0.82,-0.55 1.03,-0.97c0.22,-0.42 0.33,-0.92 0.33,-1.5c0,-0.58 -0.11,-1.09 -0.33,-1.53c-0.21,-0.43 -0.56,-0.77 -1.04,-1.01c-0.48,-0.24 -1.11,-0.36 -1.9,-0.36l-3.09,0l0,12.98l-1.77,0zm6.85,-6.53l3.58,6.53l-2.04,0l-3.53,-6.53l1.99,0zm7.02,6.53l-1.84,0l5.34,-14.54l1.82,0l5.34,14.54l-1.85,0l-4.35,-12.24l-0.11,0l-4.35,12.24zm0.69,-5.68l7.44,0l0,1.57l-7.44,0l0,-1.57zm12.71,5.68l0,-14.54l4.92,0c1.14,0 2.07,0.21 2.8,0.62c0.73,0.4 1.27,0.96 1.62,1.65c0.35,0.7 0.52,1.47 0.52,2.33c0,0.86 -0.17,1.64 -0.52,2.34c-0.35,0.7 -0.89,1.26 -1.61,1.67c-0.72,0.42 -1.65,0.62 -2.78,0.62l-3.53,0l0,-1.56l3.47,0c0.78,0 1.41,-0.14 1.88,-0.41c0.48,-0.27 0.82,-0.63 1.03,-1.09c0.22,-0.46 0.33,-0.99 0.33,-1.57c0,-0.58 -0.11,-1.1 -0.33,-1.56c-0.21,-0.46 -0.56,-0.82 -1.04,-1.08c-0.47,-0.27 -1.11,-0.4 -1.9,-0.4l-3.1,0l0,12.98l-1.76,0zm13.18,0l0,-14.54l1.76,0l0,6.48l7.76,0l0,-6.48l1.76,0l0,14.54l-1.76,0l0,-6.5l-7.76,0l0,6.5l-1.76,0zm17.04,-14.54l0,14.54l-1.76,0l0,-14.54l1.76,0zm15.72,4.54l-1.76,0c-0.1,-0.5 -0.29,-0.95 -0.55,-1.33c-0.25,-0.38 -0.57,-0.71 -0.93,-0.97c-0.37,-0.26 -0.77,-0.46 -1.22,-0.59c-0.44,-0.14 -0.91,-0.2 -1.39,-0.2c-0.88,0 -1.68,0.22 -2.39,0.67c-0.72,0.44 -1.28,1.1 -1.7,1.96c-0.42,0.87 -0.63,1.93 -0.63,3.19c0,1.26 0.21,2.32 0.63,3.19c0.42,0.87 0.98,1.52 1.7,1.97c0.71,0.44 1.51,0.66 2.39,0.66c0.48,0 0.95,-0.06 1.39,-0.19c0.45,-0.14 0.85,-0.33 1.22,-0.59c0.36,-0.27 0.68,-0.59 0.93,-0.98c0.26,-0.38 0.45,-0.83 0.55,-1.33l1.76,0c-0.13,0.74 -0.37,1.41 -0.72,1.99c-0.35,0.59 -0.79,1.09 -1.31,1.5c-0.52,0.41 -1.11,0.72 -1.75,0.93c-0.65,0.22 -1.34,0.32 -2.07,0.32c-1.24,0 -2.35,-0.3 -3.31,-0.91c-0.97,-0.6 -1.73,-1.46 -2.28,-2.58c-0.55,-1.12 -0.83,-2.44 -0.83,-3.98c0,-1.53 0.28,-2.86 0.83,-3.98c0.55,-1.11 1.31,-1.98 2.28,-2.58c0.96,-0.61 2.07,-0.91 3.31,-0.91c0.73,0 1.42,0.11 2.07,0.32c0.64,0.21 1.23,0.53 1.75,0.94c0.52,0.4 0.96,0.9 1.31,1.49c0.35,0.58 0.59,1.25 0.72,1.99zm13.92,10l-4.49,0l0,-14.54l4.69,0c1.41,0 2.62,0.29 3.62,0.87c1.01,0.58 1.78,1.41 2.31,2.5c0.54,1.07 0.8,2.37 0.8,3.87c0,1.52 -0.27,2.82 -0.81,3.92c-0.54,1.08 -1.32,1.92 -2.36,2.51c-1.03,0.58 -2.28,0.87 -3.76,0.87zm-2.73,-1.56l2.62,0c1.2,0 2.2,-0.23 2.99,-0.69c0.79,-0.47 1.38,-1.13 1.77,-1.99c0.38,-0.85 0.58,-1.87 0.58,-3.06c0,-1.17 -0.19,-2.18 -0.58,-3.03c-0.38,-0.85 -0.95,-1.5 -1.72,-1.96c-0.76,-0.46 -1.71,-0.69 -2.84,-0.69l-2.82,0l0,11.42zm13.1,1.56l0,-14.54l8.78,0l0,1.56l-7.02,0l0,4.92l6.56,0l0,1.56l-6.56,0l0,4.94l7.13,0l0,1.56l-8.89,0zm20.39,-10.9c-0.09,-0.72 -0.44,-1.28 -1.04,-1.68c-0.61,-0.4 -1.35,-0.6 -2.23,-0.6c-0.65,0 -1.21,0.11 -1.69,0.32c-0.48,0.2 -0.85,0.49 -1.13,0.85c-0.26,0.37 -0.39,0.78 -0.39,1.25c0,0.39 0.09,0.72 0.27,1c0.19,0.27 0.43,0.5 0.73,0.69c0.29,0.18 0.6,0.33 0.92,0.45c0.32,0.11 0.62,0.2 0.89,0.27l1.48,0.4c0.38,0.1 0.8,0.24 1.26,0.41c0.47,0.18 0.92,0.42 1.34,0.72c0.43,0.3 0.79,0.68 1.07,1.15c0.28,0.47 0.42,1.04 0.42,1.72c0,0.79 -0.21,1.5 -0.62,2.14c-0.41,0.63 -1,1.14 -1.79,1.51c-0.78,0.37 -1.73,0.56 -2.85,0.56c-1.04,0 -1.94,-0.17 -2.7,-0.5c-0.76,-0.34 -1.36,-0.81 -1.79,-1.41c-0.43,-0.6 -0.68,-1.3 -0.73,-2.1l1.81,0c0.05,0.55 0.24,1.01 0.56,1.37c0.32,0.35 0.74,0.62 1.23,0.79c0.51,0.17 1.04,0.26 1.62,0.26c0.67,0 1.28,-0.11 1.81,-0.33c0.54,-0.22 0.96,-0.53 1.27,-0.92c0.32,-0.4 0.47,-0.86 0.47,-1.39c0,-0.49 -0.13,-0.88 -0.4,-1.18c-0.27,-0.3 -0.63,-0.55 -1.07,-0.74c-0.44,-0.19 -0.91,-0.36 -1.42,-0.5l-1.79,-0.51c-1.14,-0.33 -2.04,-0.79 -2.7,-1.4c-0.67,-0.6 -1,-1.4 -1,-2.38c0,-0.81 0.22,-1.52 0.66,-2.13c0.45,-0.61 1.04,-1.08 1.79,-1.42c0.76,-0.34 1.6,-0.51 2.52,-0.51c0.94,0 1.78,0.17 2.5,0.5c0.73,0.34 1.31,0.79 1.74,1.37c0.43,0.57 0.66,1.23 0.68,1.97l-1.7,0zm7.03,-3.64l0,14.54l-1.76,0l0,-14.54l1.76,0zm13.96,4.54c-0.16,-0.47 -0.36,-0.9 -0.62,-1.28c-0.25,-0.39 -0.55,-0.71 -0.9,-0.98c-0.35,-0.27 -0.74,-0.48 -1.18,-0.62c-0.44,-0.14 -0.92,-0.21 -1.45,-0.21c-0.86,0 -1.64,0.22 -2.35,0.67c-0.7,0.44 -1.27,1.1 -1.68,1.96c-0.42,0.87 -0.63,1.93 -0.63,3.19c0,1.26 0.21,2.32 0.64,3.19c0.42,0.87 0.99,1.52 1.71,1.97c0.72,0.44 1.53,0.66 2.43,0.66c0.83,0 1.56,-0.17 2.2,-0.53c0.64,-0.36 1.13,-0.86 1.49,-1.52c0.36,-0.65 0.54,-1.43 0.54,-2.32l0.54,0.11l-4.38,0l0,-1.56l5.54,0l0,1.56c0,1.2 -0.25,2.24 -0.76,3.13c-0.51,0.88 -1.21,1.57 -2.11,2.06c-0.89,0.48 -1.91,0.72 -3.06,0.72c-1.29,0 -2.42,-0.3 -3.4,-0.91c-0.97,-0.6 -1.73,-1.46 -2.27,-2.58c-0.54,-1.12 -0.81,-2.44 -0.81,-3.98c0,-1.15 0.15,-2.18 0.46,-3.1c0.31,-0.93 0.75,-1.71 1.32,-2.36c0.57,-0.65 1.24,-1.15 2.02,-1.49c0.78,-0.35 1.63,-0.52 2.56,-0.52c0.77,0 1.48,0.12 2.15,0.35c0.67,0.22 1.26,0.55 1.78,0.97c0.53,0.42 0.96,0.92 1.31,1.5c0.35,0.58 0.6,1.22 0.73,1.92l-1.82,0zm16.93,-4.54l0,14.54l-1.7,0l-7.93,-11.42l-0.14,0l0,11.42l-1.76,0l0,-14.54l1.7,0l7.96,11.45l0.14,0l0,-11.45l1.73,0z" fill="#3B4761" id="svg_12"/>
  <path clip-rule="evenodd" d="m190.24,90.07c0,-44.18 -35.82,-80 -80,-80c-44.18,0 -80,35.82 -80,80c0,44.19 35.82,80 80,80c44.18,0 80,-35.81 80,-80zm-13,0c0,-37 -30,-66.99 -67,-66.99c-37,0 -67,29.99 -67,66.99c0,37.01 30,67 67,67c37,0 67,-29.99 67,-67z" fill="#DFE8ED" fill-rule="evenodd" id="svg_11"/>
  <path clip-rule="evenodd" d="m105.38,-0.33l3,19.88c0,0 120.99,46.06 46.25,117.96c-57.51,55.32 -111.55,-23.27 -111.55,-23.27l-22.83,12.27c0,0 41.69,78.76 125.74,48.3c67.04,-24.3 67.99,-102.48 41.78,-140.53c-26.21,-38.04 -83.39,-13.61 -82.39,-34.61z" fill="#15C7A8" fill-rule="evenodd" id="svg_10"/>
  <path d="m85.44,103.46l11.39,-22.52l0,-0.2l-13.13,0l0,-2.73l16.31,0l0,2.88l-11.34,22.57l-3.23,0zm27.84,0.35c-1.88,0 -3.47,-0.51 -4.79,-1.53c-1.32,-1.03 -2.32,-2.52 -3.02,-4.46c-0.7,-1.96 -1.04,-4.32 -1.04,-7.09c0,-2.75 0.34,-5.1 1.04,-7.04c0.7,-1.96 1.72,-3.45 3.03,-4.48c1.33,-1.03 2.92,-1.55 4.78,-1.55c1.85,0 3.44,0.52 4.76,1.55c1.32,1.03 2.33,2.52 3.03,4.48c0.7,1.94 1.05,4.29 1.05,7.04c0,2.77 -0.34,5.13 -1.04,7.09c-0.69,1.94 -1.7,3.43 -3.02,4.46c-1.32,1.02 -2.91,1.53 -4.78,1.53zm0,-2.74c1.85,0 3.29,-0.89 4.32,-2.68c1.03,-1.79 1.54,-4.34 1.54,-7.66c0,-2.2 -0.23,-4.08 -0.71,-5.63c-0.46,-1.55 -1.13,-2.73 -2.01,-3.54c-0.87,-0.81 -1.92,-1.22 -3.14,-1.22c-1.84,0 -3.28,0.91 -4.32,2.72c-1.03,1.81 -1.55,4.37 -1.55,7.67c0,2.21 0.23,4.08 0.7,5.62c0.46,1.54 1.13,2.71 2,3.52c0.87,0.8 1.93,1.2 3.17,1.2zm22.96,-1.02l0,-0.96c0,-0.66 0.14,-1.27 0.41,-1.82c0.28,-0.55 0.68,-1 1.21,-1.33c0.53,-0.34 1.18,-0.51 1.93,-0.51c0.77,0 1.42,0.17 1.94,0.51c0.52,0.33 0.92,0.78 1.18,1.33c0.27,0.55 0.4,1.16 0.4,1.82l0,0.96c0,0.66 -0.14,1.27 -0.41,1.83c-0.26,0.55 -0.66,0.99 -1.19,1.33c-0.52,0.33 -1.16,0.5 -1.92,0.5c-0.76,0 -1.41,-0.17 -1.94,-0.5c-0.53,-0.34 -0.93,-0.78 -1.2,-1.33c-0.27,-0.56 -0.41,-1.17 -0.41,-1.83zm1.82,-0.96l0,0.96c0,0.55 0.12,1.05 0.39,1.48c0.26,0.44 0.71,0.65 1.34,0.65c0.63,0 1.06,-0.21 1.32,-0.65c0.26,-0.43 0.39,-0.93 0.39,-1.48l0,-0.96c0,-0.55 -0.13,-1.04 -0.37,-1.47c-0.25,-0.44 -0.7,-0.66 -1.34,-0.66c-0.62,0 -1.06,0.22 -1.34,0.66c-0.26,0.43 -0.39,0.92 -0.39,1.47zm-10.87,-9.44l0,-0.96c0,-0.67 0.13,-1.27 0.41,-1.82c0.27,-0.56 0.68,-1 1.2,-1.33c0.54,-0.34 1.18,-0.51 1.94,-0.51c0.77,0 1.41,0.17 1.94,0.51c0.52,0.33 0.91,0.77 1.18,1.33c0.26,0.55 0.4,1.15 0.4,1.82l0,0.96c0,0.66 -0.14,1.27 -0.41,1.83c-0.27,0.54 -0.67,0.99 -1.19,1.33c-0.52,0.33 -1.16,0.49 -1.92,0.49c-0.77,0 -1.42,-0.16 -1.95,-0.49c-0.52,-0.34 -0.92,-0.79 -1.19,-1.33c-0.28,-0.56 -0.41,-1.17 -0.41,-1.83zm1.81,-0.96l0,0.96c0,0.55 0.13,1.04 0.39,1.48c0.26,0.43 0.71,0.65 1.35,0.65c0.62,0 1.06,-0.22 1.31,-0.65c0.26,-0.44 0.39,-0.93 0.39,-1.48l0,-0.96c0,-0.55 -0.12,-1.04 -0.37,-1.48c-0.25,-0.43 -0.69,-0.65 -1.33,-0.65c-0.62,0 -1.07,0.22 -1.34,0.65c-0.27,0.44 -0.4,0.93 -0.4,1.48zm-1.14,14.77l12.5,-18.18l2.03,0l-12.5,18.18l-2.03,0z" fill="#3B4761" id="svg_9"/>
 </g>
</svg>