<?xml version="1.0"?>
<svg width="218" height="222" xmlns="http://www.w3.org/2000/svg" xmlns:svg="http://www.w3.org/2000/svg">

 <g class="layer">
  <title>Layer 1</title>
  <path d="m82.07,203.1l1.94,0l0,10.6c0,1.09 -0.26,2.07 -0.78,2.93c-0.51,0.85 -1.23,1.53 -2.16,2.02c-0.93,0.49 -2.03,0.74 -3.28,0.74c-1.26,0 -2.35,-0.25 -3.28,-0.74c-0.94,-0.49 -1.66,-1.17 -2.18,-2.02c-0.51,-0.86 -0.76,-1.84 -0.76,-2.93l0,-10.6l1.94,0l0,10.44c0,0.78 0.17,1.48 0.51,2.09c0.34,0.6 0.83,1.08 1.47,1.43c0.64,0.34 1.41,0.51 2.3,0.51c0.89,0 1.65,-0.17 2.29,-0.51c0.64,-0.35 1.13,-0.83 1.47,-1.43c0.35,-0.61 0.52,-1.31 0.52,-2.09l0,-10.44zm8.22,0l0,16l-1.94,0l0,-16l1.94,0zm16.44,-0.75l-5.16,19.16l-1.68,0l5.15,-19.16l1.69,0zm20.08,0.75l1.94,0l0,10.6c0,1.09 -0.26,2.07 -0.77,2.93c-0.51,0.85 -1.23,1.53 -2.17,2.02c-0.93,0.49 -2.02,0.74 -3.28,0.74c-1.25,0 -2.35,-0.25 -3.28,-0.74c-0.93,-0.49 -1.66,-1.17 -2.17,-2.02c-0.51,-0.86 -0.77,-1.84 -0.77,-2.93l0,-10.6l1.94,0l0,10.44c0,0.78 0.17,1.48 0.52,2.09c0.34,0.6 0.83,1.08 1.46,1.43c0.65,0.34 1.41,0.51 2.3,0.51c0.89,0 1.66,-0.17 2.3,-0.51c0.64,-0.35 1.13,-0.83 1.47,-1.43c0.34,-0.61 0.51,-1.31 0.51,-2.09l0,-10.44zm7.23,0l4.12,6.66l0.13,0l4.12,-6.66l2.28,0l-5.03,8l5.03,8l-2.28,0l-4.12,-6.53l-0.13,0l-4.12,6.53l-2.28,0l5.15,-8l-5.15,-8l2.28,0z" fill="#3B4761" id="svg_8"/>
  <path clip-rule="evenodd" d="m188.73,92.1c0,-44.18 -35.82,-80 -80,-80c-44.18,0 -80,35.82 -80,80c0,44.19 35.82,80 80,80c44.18,0 80,-35.81 80,-80zm-13,0c0,-37 -30,-66.99 -67,-66.99c-37,0 -67,29.99 -67,66.99c0,37.01 30,67 67,67c37,0 67,-29.99 67,-67z" fill="#DFE8ED" fill-rule="evenodd" id="svg_7"/>
  <path d="m95.29,111.84c-1.71,0 -3.22,-0.3 -4.53,-0.91c-1.3,-0.61 -2.31,-1.45 -3.04,-2.52c-0.73,-1.08 -1.09,-2.31 -1.08,-3.68c-0.01,-1.08 0.2,-2.07 0.63,-2.98c0.43,-0.92 1.02,-1.69 1.77,-2.3c0.75,-0.63 1.59,-1.02 2.52,-1.18l0,-0.15c-1.22,-0.32 -2.19,-1 -2.91,-2.05c-0.72,-1.06 -1.08,-2.27 -1.07,-3.62c-0.01,-1.29 0.32,-2.45 0.98,-3.47c0.67,-1.02 1.58,-1.82 2.74,-2.41c1.17,-0.59 2.5,-0.88 3.99,-0.88c1.47,0 2.79,0.29 3.95,0.88c1.16,0.59 2.07,1.39 2.74,2.41c0.67,1.02 1.01,2.18 1.01,3.47c0,1.35 -0.37,2.56 -1.1,3.62c-0.72,1.05 -1.68,1.73 -2.87,2.05l0,0.15c0.92,0.16 1.75,0.55 2.48,1.18c0.74,0.61 1.33,1.38 1.77,2.3c0.44,0.91 0.66,1.9 0.67,2.98c-0.01,1.37 -0.38,2.6 -1.12,3.68c-0.73,1.07 -1.74,1.91 -3.04,2.52c-1.3,0.61 -2.79,0.91 -4.49,0.91zm0,-2.74c1.15,0 2.14,-0.18 2.98,-0.56c0.84,-0.37 1.48,-0.89 1.94,-1.57c0.46,-0.68 0.69,-1.48 0.7,-2.39c-0.01,-0.96 -0.26,-1.81 -0.75,-2.55c-0.49,-0.74 -1.16,-1.32 -2,-1.74c-0.84,-0.42 -1.79,-0.63 -2.87,-0.63c-1.09,0 -2.06,0.21 -2.91,0.63c-0.85,0.42 -1.51,1 -2,1.74c-0.48,0.74 -0.72,1.59 -0.71,2.55c-0.01,0.91 0.21,1.71 0.66,2.39c0.45,0.68 1.11,1.2 1.95,1.57c0.85,0.38 1.85,0.56 3.01,0.56zm0,-12.08c0.91,0 1.72,-0.18 2.42,-0.54c0.71,-0.37 1.27,-0.88 1.68,-1.53c0.41,-0.66 0.61,-1.42 0.62,-2.3c-0.01,-0.86 -0.21,-1.61 -0.61,-2.25c-0.4,-0.65 -0.95,-1.15 -1.65,-1.49c-0.7,-0.36 -1.53,-0.54 -2.46,-0.54c-0.95,0 -1.79,0.18 -2.5,0.54c-0.71,0.34 -1.26,0.84 -1.65,1.49c-0.39,0.64 -0.58,1.39 -0.57,2.25c-0.01,0.88 0.18,1.64 0.58,2.3c0.41,0.65 0.96,1.16 1.68,1.53c0.71,0.36 1.53,0.54 2.46,0.54zm22.25,14.82c-1.46,0 -2.77,-0.29 -3.94,-0.87c-1.17,-0.58 -2.11,-1.38 -2.81,-2.39c-0.71,-1.01 -1.09,-2.16 -1.16,-3.45l2.98,0c0.12,1.15 0.64,2.1 1.57,2.86c0.94,0.74 2.06,1.11 3.36,1.11c1.04,0 1.97,-0.24 2.78,-0.73c0.82,-0.49 1.46,-1.16 1.93,-2.01c0.47,-0.87 0.71,-1.84 0.71,-2.92c0,-1.11 -0.25,-2.1 -0.74,-2.98c-0.48,-0.87 -1.14,-1.56 -1.99,-2.07c-0.84,-0.51 -1.81,-0.76 -2.89,-0.77c-0.78,-0.01 -1.58,0.11 -2.4,0.36c-0.82,0.24 -1.5,0.55 -2.03,0.93l-2.88,-0.35l1.54,-12.52l13.23,0l0,2.73l-10.64,0l-0.9,7.51l0.15,0c0.52,-0.42 1.18,-0.76 1.96,-1.03c0.79,-0.28 1.61,-0.41 2.47,-0.41c1.55,0 2.94,0.37 4.16,1.11c1.22,0.74 2.19,1.75 2.88,3.04c0.71,1.28 1.06,2.75 1.06,4.4c0,1.62 -0.37,3.07 -1.1,4.35c-0.72,1.26 -1.71,2.27 -2.98,3c-1.27,0.73 -2.71,1.1 -4.32,1.1zm22.73,-3.76l0,-0.96c0,-0.66 0.14,-1.27 0.41,-1.82c0.28,-0.55 0.68,-1 1.21,-1.33c0.53,-0.34 1.17,-0.51 1.93,-0.51c0.77,0 1.42,0.17 1.94,0.51c0.52,0.33 0.91,0.78 1.18,1.33c0.27,0.55 0.4,1.16 0.4,1.82l0,0.96c0,0.66 -0.14,1.27 -0.41,1.83c-0.27,0.55 -0.66,0.99 -1.19,1.33c-0.52,0.33 -1.16,0.5 -1.92,0.5c-0.77,0 -1.41,-0.17 -1.94,-0.5c-0.53,-0.34 -0.93,-0.78 -1.2,-1.33c-0.27,-0.56 -0.41,-1.17 -0.41,-1.83zm1.81,-0.96l0,0.96c0,0.55 0.13,1.05 0.39,1.48c0.26,0.44 0.71,0.65 1.35,0.65c0.62,0 1.06,-0.21 1.32,-0.65c0.26,-0.43 0.39,-0.93 0.39,-1.48l0,-0.96c0,-0.55 -0.13,-1.04 -0.37,-1.47c-0.25,-0.44 -0.7,-0.66 -1.34,-0.66c-0.62,0 -1.07,0.22 -1.34,0.66c-0.26,0.43 -0.4,0.92 -0.4,1.47zm-10.86,-9.44l0,-0.96c0,-0.67 0.13,-1.27 0.41,-1.82c0.27,-0.56 0.68,-1 1.2,-1.33c0.53,-0.34 1.18,-0.51 1.94,-0.51c0.77,0 1.41,0.17 1.93,0.51c0.52,0.33 0.92,0.77 1.18,1.33c0.27,0.55 0.4,1.15 0.4,1.82l0,0.96c0,0.66 -0.13,1.27 -0.4,1.83c-0.27,0.54 -0.67,0.99 -1.19,1.33c-0.53,0.33 -1.16,0.49 -1.92,0.49c-0.77,0 -1.42,-0.16 -1.95,-0.49c-0.52,-0.34 -0.92,-0.79 -1.19,-1.33c-0.28,-0.56 -0.41,-1.17 -0.41,-1.83zm1.81,-0.96l0,0.96c0,0.55 0.13,1.04 0.39,1.48c0.26,0.43 0.71,0.65 1.35,0.65c0.62,0 1.06,-0.22 1.31,-0.65c0.26,-0.44 0.39,-0.93 0.39,-1.48l0,-0.96c0,-0.55 -0.12,-1.04 -0.37,-1.48c-0.25,-0.43 -0.69,-0.65 -1.33,-0.65c-0.62,0 -1.07,0.22 -1.34,0.65c-0.27,0.44 -0.4,0.93 -0.4,1.48zm-1.14,14.77l12.5,-18.18l2.03,0l-12.5,18.18l-2.03,0z" fill="#3B4761" id="svg_6"/>
  <path clip-rule="evenodd" d="m109.41,1.49l0,30.37c0,0 96.54,60.9 21.1,97.51c-91.26,16.56 -78.16,-69.06 -78.16,-69.06l-25.49,-13.96c0,0 -13.66,37.07 -3.76,70.29c10.93,36.65 48.64,69.01 122.05,50.45c65.38,-16.54 64.63,-89.26 39.71,-122.39c-24.91,-33.14 -75.45,-43.21 -75.45,-43.21z" fill="#EB7D4B" fill-rule="evenodd" id="svg_5"/>
 </g>
</svg>