<svg width="35" height="35" viewBox="0 0 35 35" fill="none" xmlns="http://www.w3.org/2000/svg">
<path fill-rule="evenodd" clip-rule="evenodd" d="M18 1.99951C26.8365 1.99951 33.9999 9.16291 33.9999 17.9995C33.9999 26.836 26.8365 33.9998 18 33.9998C9.16338 33.9998 1.99988 26.836 1.99988 17.9995C1.99988 9.16291 9.16338 1.99951 18 1.99951Z" fill="#BDD1DF"/>
<path fill-rule="evenodd" clip-rule="evenodd" d="M20.9786 10.6963H19.328C19.328 10.6963 16.0149 10.4445 16.0149 13.9935C16.0149 14.7524 16.0149 15.8291 16.0149 15.8291H14.0151L14.0212 17.8682H16.0139L15.9845 26.0116H19.0139V17.8999L20.7522 17.8682L21.376 15.8291H18.9816V13.7308C18.9816 13.7308 18.957 12.7999 20.0306 12.7999H20.9687L20.9786 10.6963Z" fill="white"/>
</svg>
