<svg width="35" height="35" viewBox="0 0 35 35" fill="none" xmlns="http://www.w3.org/2000/svg">
<path fill-rule="evenodd" clip-rule="evenodd" d="M17.9999 1.99951C26.8365 1.99951 34 9.16291 34 17.9995C34 26.836 26.8365 33.9998 17.9999 33.9998C9.1634 33.9998 2 26.836 2 17.9995C2 9.16291 9.1634 1.99951 17.9999 1.99951Z" fill="#BDD1DF"/>
<path d="M14.4641 10.9183C14.4641 11.892 13.7641 12.6087 12.5675 12.6087C11.442 12.6087 10.6874 11.892 10.6874 10.9183C10.6874 9.92067 11.4382 9.21387 12.5874 9.21387C13.7368 9.21387 14.4409 9.92067 14.4641 10.9183ZM10.9957 25.0101V13.9871H14.0069V25.0101H10.9957ZM16.0152 13.9871H18.7015L19.0233 15.1095C19.4674 14.3994 20.4291 13.6056 22.2502 13.6056C24.4708 13.6056 26.006 14.9006 26.006 18.0956V24.9785H23.0064V18.5774C23.0064 17.1796 22.0407 16.2257 20.8191 16.2257C19.8865 16.2257 19.3476 16.869 19.1033 17.4902C19.0142 17.712 18.9919 18.023 18.9919 18.3336V24.9785H16.0152V13.9871Z" fill="white"/>
<path fill-rule="evenodd" clip-rule="evenodd" d="M14.4641 10.9183C14.4641 11.892 13.7641 12.6087 12.5675 12.6087C11.442 12.6087 10.6874 11.892 10.6874 10.9183C10.6874 9.92067 11.4382 9.21387 12.5874 9.21387C13.7368 9.21387 14.4409 9.92067 14.4641 10.9183ZM10.9957 25.0101V13.9871H14.0069V25.0101H10.9957ZM16.0152 13.9871H18.7015L19.0233 15.1095C19.4674 14.3994 20.4291 13.6056 22.2502 13.6056C24.4708 13.6056 26.006 14.9006 26.006 18.0956V24.9785H23.0064V18.5774C23.0064 17.1796 22.0407 16.2257 20.8191 16.2257C19.8865 16.2257 19.3476 16.869 19.1033 17.4902C19.0142 17.712 18.9919 18.023 18.9919 18.3336V24.9785H16.0152V13.9871Z" fill="white"/>
<path d="M14.4641 10.9183C14.4641 11.892 13.7641 12.6087 12.5675 12.6087C11.442 12.6087 10.6874 11.892 10.6874 10.9183C10.6874 9.92067 11.4382 9.21387 12.5874 9.21387C13.7368 9.21387 14.4409 9.92067 14.4641 10.9183ZM10.9957 25.0101V13.9871H14.0069V25.0101H10.9957ZM16.0152 13.9871H18.7015L19.0233 15.1095C19.4674 14.3994 20.4291 13.6056 22.2502 13.6056C24.4708 13.6056 26.006 14.9006 26.006 18.0956V24.9785H23.0064V18.5774C23.0064 17.1796 22.0407 16.2257 20.8191 16.2257C19.8865 16.2257 19.3476 16.869 19.1033 17.4902C19.0142 17.712 18.9919 18.023 18.9919 18.3336V24.9785H16.0152V13.9871Z" fill="white"/>
</svg>
