<svg width="35" height="35" viewBox="0 0 35 35" fill="none" xmlns="http://www.w3.org/2000/svg">
<path fill-rule="evenodd" clip-rule="evenodd" d="M17.9999 1.99951C26.8365 1.99951 34 9.16291 34 17.9995C34 26.836 26.8365 33.9998 17.9999 33.9998C9.1634 33.9998 2 26.836 2 17.9995C2 9.16291 9.1634 1.99951 17.9999 1.99951Z" fill="#BDD1DF"/>
<path d="M10.2794 14.178C10.7886 14.4482 16.7957 18.1885 17.058 18.3273C17.3207 18.4665 17.6607 18.5337 18.0034 18.5337C18.3461 18.5337 18.6861 18.4665 18.9488 18.3273C19.2111 18.1885 25.2181 14.4482 25.7274 14.178C26.237 13.9078 26.7193 13.0596 25.7831 13.0596H10.2236C9.28807 13.0596 9.76972 13.9078 10.2794 14.178ZM25.9432 16.2378C25.3646 16.5363 19.303 20.205 18.9488 20.3875C18.5941 20.5703 18.3461 20.5938 18.0034 20.5938C17.6607 20.5938 17.4126 20.5703 17.058 20.3875C16.7038 20.205 10.6426 16.5363 10.0636 16.2378C9.65639 16.0281 9.65973 16.2741 9.65973 16.464C9.65973 16.6538 9.65973 24.0195 9.65973 24.0195C9.65973 24.4513 10.2423 25.0072 10.6944 25.0072H25.3124C25.7645 25.0072 26.347 24.4513 26.347 24.0195C26.347 24.0195 26.347 16.6538 26.347 16.464C26.347 16.2741 26.3509 16.0281 25.9432 16.2378Z" fill="white"/>
<path fill-rule="evenodd" clip-rule="evenodd" d="M10.2794 14.178C10.7886 14.4482 16.7957 18.1885 17.058 18.3273C17.3207 18.4665 17.6607 18.5337 18.0034 18.5337C18.3461 18.5337 18.6861 18.4665 18.9488 18.3273C19.2111 18.1885 25.2181 14.4482 25.7274 14.178C26.237 13.9078 26.7193 13.0596 25.7831 13.0596H10.2236C9.28807 13.0596 9.76972 13.9078 10.2794 14.178ZM25.9432 16.2378C25.3646 16.5363 19.303 20.205 18.9488 20.3875C18.5941 20.5703 18.3461 20.5938 18.0034 20.5938C17.6607 20.5938 17.4126 20.5703 17.058 20.3875C16.7038 20.205 10.6426 16.5363 10.0636 16.2378C9.65639 16.0281 9.65973 16.2741 9.65973 16.464C9.65973 16.6538 9.65973 24.0195 9.65973 24.0195C9.65973 24.4513 10.2423 25.0072 10.6944 25.0072H25.3124C25.7645 25.0072 26.347 24.4513 26.347 24.0195C26.347 24.0195 26.347 16.6538 26.347 16.464C26.347 16.2741 26.3509 16.0281 25.9432 16.2378Z" fill="white"/>
</svg>
