<svg width="35" height="35" viewBox="0 0 35 35" fill="none" xmlns="http://www.w3.org/2000/svg">
<path fill-rule="evenodd" clip-rule="evenodd" d="M18 1.99951C26.8365 1.99951 34 9.16291 34 17.9995C34 26.836 26.8365 33.9998 18 33.9998C9.16338 33.9998 1.99988 26.836 1.99988 17.9995C1.99988 9.16291 9.16338 1.99951 18 1.99951Z" fill="#BDD1DF"/>
<path d="M26.9844 13.6554C26.3597 13.9367 25.6888 14.1269 24.9846 14.212C25.7037 13.7744 26.2556 13.0815 26.5156 12.2562C25.8427 12.6615 25.0977 12.9556 24.3048 13.1142C23.6698 12.4269 22.7648 11.998 21.7637 11.998C19.8411 11.998 18.2823 13.5805 18.2823 15.5327C18.2823 15.81 18.313 16.0798 18.3724 16.3383C15.4793 16.1911 12.9133 14.7837 11.1968 12.6446C10.897 13.1671 10.7252 13.774 10.7252 14.4221C10.7252 15.6484 11.3398 16.7301 12.2738 17.3642C11.7036 17.3462 11.1665 17.1872 10.6971 16.9225C10.6967 16.9371 10.6967 16.9515 10.6967 16.9665C10.6967 18.6797 11.8971 20.1083 13.4893 20.4329C13.1975 20.5141 12.8899 20.557 12.5721 20.557C12.3481 20.557 12.1301 20.535 11.9172 20.4935C12.3604 21.8979 13.6464 22.9205 15.1694 22.9487C13.9778 23.8971 12.4771 24.4622 10.8459 24.4622C10.5649 24.4622 10.2878 24.4453 10.0156 24.4119C11.5559 25.4157 13.3856 26.001 15.3522 26.001C21.7555 26.001 25.2574 20.6139 25.2574 15.9429C25.2574 15.7898 25.2541 15.637 25.2472 15.485C25.9274 14.9871 26.5175 14.3644 26.9844 13.6554Z" fill="white"/>
</svg>
